<mxfile host="app.diagrams.net" modified="2024-02-16T02:06:59.679Z" agent="Mozilla/5.0 (X11; Linux x86_64) AppleWebKit/537.36 (KHTML, like Gecko) Chrome/121.0.0.0 Safari/537.36" etag="3_bI-qo3HcHif2iGqOTB" version="23.1.5" type="github">
  <diagram name="Page-1" id="2YBvvXClWsGukQMizWep">
    <mxGraphModel dx="989" dy="624" grid="1" gridSize="10" guides="1" tooltips="1" connect="1" arrows="1" fold="1" page="1" pageScale="1" pageWidth="850" pageHeight="1100" math="0" shadow="0">
      <root>
        <mxCell id="0" />
        <mxCell id="1" parent="0" />
        <mxCell id="ltLlW4g9V4cl66PpBt7y-4" value="" style="edgeStyle=orthogonalEdgeStyle;rounded=0;orthogonalLoop=1;jettySize=auto;html=1;" edge="1" parent="1" source="ltLlW4g9V4cl66PpBt7y-1" target="ltLlW4g9V4cl66PpBt7y-3">
          <mxGeometry relative="1" as="geometry" />
        </mxCell>
        <mxCell id="ltLlW4g9V4cl66PpBt7y-5" value="" style="edgeStyle=orthogonalEdgeStyle;rounded=0;orthogonalLoop=1;jettySize=auto;html=1;" edge="1" parent="1" source="ltLlW4g9V4cl66PpBt7y-1" target="ltLlW4g9V4cl66PpBt7y-3">
          <mxGeometry relative="1" as="geometry" />
        </mxCell>
        <mxCell id="ltLlW4g9V4cl66PpBt7y-7" value="" style="edgeStyle=orthogonalEdgeStyle;rounded=0;orthogonalLoop=1;jettySize=auto;html=1;" edge="1" parent="1" source="ltLlW4g9V4cl66PpBt7y-1" target="ltLlW4g9V4cl66PpBt7y-6">
          <mxGeometry relative="1" as="geometry">
            <Array as="points">
              <mxPoint x="80" y="280" />
              <mxPoint x="220" y="280" />
            </Array>
          </mxGeometry>
        </mxCell>
        <mxCell id="ltLlW4g9V4cl66PpBt7y-9" value="" style="edgeStyle=orthogonalEdgeStyle;rounded=0;orthogonalLoop=1;jettySize=auto;html=1;" edge="1" parent="1" source="ltLlW4g9V4cl66PpBt7y-1" target="ltLlW4g9V4cl66PpBt7y-8">
          <mxGeometry relative="1" as="geometry">
            <Array as="points">
              <mxPoint x="80" y="280" />
              <mxPoint x="360" y="280" />
            </Array>
          </mxGeometry>
        </mxCell>
        <mxCell id="ltLlW4g9V4cl66PpBt7y-11" value="" style="edgeStyle=orthogonalEdgeStyle;rounded=0;orthogonalLoop=1;jettySize=auto;html=1;" edge="1" parent="1" source="ltLlW4g9V4cl66PpBt7y-1" target="ltLlW4g9V4cl66PpBt7y-10">
          <mxGeometry relative="1" as="geometry">
            <Array as="points">
              <mxPoint x="80" y="280" />
              <mxPoint x="500" y="280" />
            </Array>
          </mxGeometry>
        </mxCell>
        <mxCell id="ltLlW4g9V4cl66PpBt7y-13" value="" style="edgeStyle=orthogonalEdgeStyle;rounded=0;orthogonalLoop=1;jettySize=auto;html=1;" edge="1" parent="1" source="ltLlW4g9V4cl66PpBt7y-1" target="ltLlW4g9V4cl66PpBt7y-12">
          <mxGeometry relative="1" as="geometry">
            <Array as="points">
              <mxPoint x="80" y="280" />
              <mxPoint x="640" y="280" />
            </Array>
          </mxGeometry>
        </mxCell>
        <mxCell id="ltLlW4g9V4cl66PpBt7y-15" value="" style="edgeStyle=orthogonalEdgeStyle;rounded=0;orthogonalLoop=1;jettySize=auto;html=1;" edge="1" parent="1" source="ltLlW4g9V4cl66PpBt7y-1" target="ltLlW4g9V4cl66PpBt7y-14">
          <mxGeometry relative="1" as="geometry">
            <Array as="points">
              <mxPoint x="80" y="280" />
              <mxPoint x="780" y="280" />
            </Array>
          </mxGeometry>
        </mxCell>
        <mxCell id="ltLlW4g9V4cl66PpBt7y-17" value="" style="edgeStyle=orthogonalEdgeStyle;rounded=0;orthogonalLoop=1;jettySize=auto;html=1;" edge="1" parent="1" source="ltLlW4g9V4cl66PpBt7y-1" target="ltLlW4g9V4cl66PpBt7y-16">
          <mxGeometry relative="1" as="geometry">
            <Array as="points">
              <mxPoint x="80" y="280" />
              <mxPoint x="920" y="280" />
            </Array>
          </mxGeometry>
        </mxCell>
        <mxCell id="ltLlW4g9V4cl66PpBt7y-28" value="" style="edgeStyle=orthogonalEdgeStyle;rounded=0;orthogonalLoop=1;jettySize=auto;html=1;" edge="1" parent="1" source="ltLlW4g9V4cl66PpBt7y-1" target="ltLlW4g9V4cl66PpBt7y-27">
          <mxGeometry relative="1" as="geometry" />
        </mxCell>
        <mxCell id="ltLlW4g9V4cl66PpBt7y-1" value="Init task" style="rounded=0;whiteSpace=wrap;html=1;" vertex="1" parent="1">
          <mxGeometry x="20" y="210" width="120" height="40" as="geometry" />
        </mxCell>
        <mxCell id="ltLlW4g9V4cl66PpBt7y-3" value="DataHandler task" style="whiteSpace=wrap;html=1;rounded=0;" vertex="1" parent="1">
          <mxGeometry x="20" y="540" width="120" height="40" as="geometry" />
        </mxCell>
        <mxCell id="ltLlW4g9V4cl66PpBt7y-29" value="" style="edgeStyle=orthogonalEdgeStyle;rounded=0;orthogonalLoop=1;jettySize=auto;html=1;" edge="1" parent="1" source="ltLlW4g9V4cl66PpBt7y-6" target="ltLlW4g9V4cl66PpBt7y-21">
          <mxGeometry relative="1" as="geometry" />
        </mxCell>
        <mxCell id="ltLlW4g9V4cl66PpBt7y-6" value="BME680 task" style="whiteSpace=wrap;html=1;rounded=0;" vertex="1" parent="1">
          <mxGeometry x="160" y="320" width="120" height="40" as="geometry" />
        </mxCell>
        <mxCell id="ltLlW4g9V4cl66PpBt7y-30" value="" style="edgeStyle=orthogonalEdgeStyle;rounded=0;orthogonalLoop=1;jettySize=auto;html=1;" edge="1" parent="1" source="ltLlW4g9V4cl66PpBt7y-8" target="ltLlW4g9V4cl66PpBt7y-22">
          <mxGeometry relative="1" as="geometry" />
        </mxCell>
        <mxCell id="ltLlW4g9V4cl66PpBt7y-8" value="DHT20 task" style="whiteSpace=wrap;html=1;rounded=0;" vertex="1" parent="1">
          <mxGeometry x="300" y="320" width="120" height="40" as="geometry" />
        </mxCell>
        <mxCell id="ltLlW4g9V4cl66PpBt7y-31" value="" style="edgeStyle=orthogonalEdgeStyle;rounded=0;orthogonalLoop=1;jettySize=auto;html=1;" edge="1" parent="1" source="ltLlW4g9V4cl66PpBt7y-10" target="ltLlW4g9V4cl66PpBt7y-23">
          <mxGeometry relative="1" as="geometry" />
        </mxCell>
        <mxCell id="ltLlW4g9V4cl66PpBt7y-10" value="LightSensor task" style="whiteSpace=wrap;html=1;rounded=0;" vertex="1" parent="1">
          <mxGeometry x="440" y="320" width="120" height="40" as="geometry" />
        </mxCell>
        <mxCell id="ltLlW4g9V4cl66PpBt7y-32" value="" style="edgeStyle=orthogonalEdgeStyle;rounded=0;orthogonalLoop=1;jettySize=auto;html=1;" edge="1" parent="1" source="ltLlW4g9V4cl66PpBt7y-12" target="ltLlW4g9V4cl66PpBt7y-24">
          <mxGeometry relative="1" as="geometry" />
        </mxCell>
        <mxCell id="ltLlW4g9V4cl66PpBt7y-12" value="Anemometer task" style="whiteSpace=wrap;html=1;rounded=0;" vertex="1" parent="1">
          <mxGeometry x="580" y="320" width="120" height="40" as="geometry" />
        </mxCell>
        <mxCell id="ltLlW4g9V4cl66PpBt7y-33" value="" style="edgeStyle=orthogonalEdgeStyle;rounded=0;orthogonalLoop=1;jettySize=auto;html=1;" edge="1" parent="1" source="ltLlW4g9V4cl66PpBt7y-14" target="ltLlW4g9V4cl66PpBt7y-25">
          <mxGeometry relative="1" as="geometry" />
        </mxCell>
        <mxCell id="ltLlW4g9V4cl66PpBt7y-14" value="GPS task" style="whiteSpace=wrap;html=1;rounded=0;" vertex="1" parent="1">
          <mxGeometry x="720" y="320" width="120" height="40" as="geometry" />
        </mxCell>
        <mxCell id="ltLlW4g9V4cl66PpBt7y-34" value="" style="edgeStyle=orthogonalEdgeStyle;rounded=0;orthogonalLoop=1;jettySize=auto;html=1;" edge="1" parent="1" source="ltLlW4g9V4cl66PpBt7y-16" target="ltLlW4g9V4cl66PpBt7y-26">
          <mxGeometry relative="1" as="geometry" />
        </mxCell>
        <mxCell id="ltLlW4g9V4cl66PpBt7y-16" value="IMU task" style="whiteSpace=wrap;html=1;rounded=0;" vertex="1" parent="1">
          <mxGeometry x="860" y="320" width="120" height="40" as="geometry" />
        </mxCell>
        <mxCell id="ltLlW4g9V4cl66PpBt7y-21" value="BME680 Queue" style="outlineConnect=0;dashed=0;verticalLabelPosition=bottom;verticalAlign=top;align=center;html=1;shape=mxgraph.aws3.queue;direction=south;perimeterSpacing=1;fillColor=#647687;fontColor=#ffffff;strokeColor=#314354;" vertex="1" parent="1">
          <mxGeometry x="196" y="400" width="48" height="73.5" as="geometry" />
        </mxCell>
        <mxCell id="ltLlW4g9V4cl66PpBt7y-22" value="DHT20 Queue" style="outlineConnect=0;dashed=0;verticalLabelPosition=bottom;verticalAlign=top;align=center;html=1;shape=mxgraph.aws3.queue;direction=south;perimeterSpacing=1;fillColor=#647687;fontColor=#ffffff;strokeColor=#314354;" vertex="1" parent="1">
          <mxGeometry x="336" y="400" width="48" height="73.5" as="geometry" />
        </mxCell>
        <mxCell id="ltLlW4g9V4cl66PpBt7y-23" value="LightSensor Queue" style="outlineConnect=0;dashed=0;verticalLabelPosition=bottom;verticalAlign=top;align=center;html=1;shape=mxgraph.aws3.queue;direction=south;perimeterSpacing=1;fillColor=#647687;fontColor=#ffffff;strokeColor=#314354;" vertex="1" parent="1">
          <mxGeometry x="476" y="400" width="48" height="73.5" as="geometry" />
        </mxCell>
        <mxCell id="ltLlW4g9V4cl66PpBt7y-24" value="Anemometer Queue" style="outlineConnect=0;dashed=0;verticalLabelPosition=bottom;verticalAlign=top;align=center;html=1;shape=mxgraph.aws3.queue;direction=south;perimeterSpacing=1;fillColor=#647687;fontColor=#ffffff;strokeColor=#314354;" vertex="1" parent="1">
          <mxGeometry x="616" y="400" width="48" height="73.5" as="geometry" />
        </mxCell>
        <mxCell id="ltLlW4g9V4cl66PpBt7y-25" value="GPS Queue" style="outlineConnect=0;dashed=0;verticalLabelPosition=bottom;verticalAlign=top;align=center;html=1;shape=mxgraph.aws3.queue;direction=south;perimeterSpacing=1;fillColor=#647687;fontColor=#ffffff;strokeColor=#314354;" vertex="1" parent="1">
          <mxGeometry x="756" y="400" width="48" height="73.5" as="geometry" />
        </mxCell>
        <mxCell id="ltLlW4g9V4cl66PpBt7y-26" value="IMU Queue" style="outlineConnect=0;dashed=0;verticalLabelPosition=bottom;verticalAlign=top;align=center;html=1;shape=mxgraph.aws3.queue;direction=south;perimeterSpacing=1;fillColor=#647687;fontColor=#ffffff;strokeColor=#314354;" vertex="1" parent="1">
          <mxGeometry x="896" y="400" width="48" height="73.5" as="geometry" />
        </mxCell>
        <mxCell id="ltLlW4g9V4cl66PpBt7y-27" value="Perform initialisation for all sensors and components" style="rounded=0;whiteSpace=wrap;html=1;" vertex="1" parent="1">
          <mxGeometry x="196" y="205" width="120" height="50" as="geometry" />
        </mxCell>
      </root>
    </mxGraphModel>
  </diagram>
</mxfile>
